<svg xmlns="http://www.w3.org/2000/svg" viewBox="0 0 512 512" role="img" aria-label="FaithWords icon">
  <defs>
    <linearGradient id="bg" x1="0" y1="0" x2="1" y2="1">
      <stop offset="0" stop-color="#fbf4e8"/>
      <stop offset="1" stop-color="#e9dfd0"/>
    </linearGradient>
    <linearGradient id="sage" x1="0" y1="0" x2="0" y2="1">
      <stop offset="0" stop-color="#aebfa9"/>
      <stop offset="1" stop-color="#7f977e"/>
    </linearGradient>
  </defs>
  <rect width="512" height="512" rx="118" fill="url(#bg)"/>
  <circle cx="392" cy="106" r="54" fill="#e8c983" opacity=".9"/>
  <path d="M0 330c105-72 184-52 255 5 72-63 160-69 257-9v186H0z" fill="#cad7c3"/>
  <path d="M0 390c104-44 190-26 267 29 78-39 153-37 245 7v86H0z" fill="url(#sage)"/>
  <g transform="translate(95 112)">
    <rect x="0" y="0" width="88" height="88" rx="20" fill="#fffdf9" stroke="#dbcdbf" stroke-width="5"/>
    <rect x="105" y="0" width="88" height="88" rx="20" fill="#fffdf9" stroke="#dbcdbf" stroke-width="5"/>
    <rect x="210" y="0" width="88" height="88" rx="20" fill="#fffdf9" stroke="#dbcdbf" stroke-width="5"/>
    <text x="44" y="61" text-anchor="middle" font-family="Georgia,serif" font-size="54" font-weight="700" fill="#6e4f68">F</text>
    <text x="149" y="61" text-anchor="middle" font-family="Georgia,serif" font-size="54" font-weight="700" fill="#6e4f68">A</text>
    <text x="254" y="61" text-anchor="middle" font-family="Georgia,serif" font-size="54" font-weight="700" fill="#6e4f68">I</text>
  </g>
  <text x="256" y="292" text-anchor="middle" font-family="Georgia,serif" font-size="60" font-weight="700" fill="#4f453f">FaithWords</text>
  <text x="256" y="345" text-anchor="middle" font-family="Arial,sans-serif" font-size="26" font-weight="700" letter-spacing="6" fill="#a77d38">✦ WORDS OF FAITH ✦</text>
</svg>
